G04 #@! TF.GenerationSoftware,KiCad,Pcbnew,5.1.5+dfsg1-2build2*
G04 #@! TF.CreationDate,2021-06-19T02:46:47+02:00*
G04 #@! TF.ProjectId,250407_,32353034-3037-45f2-9e6b-696361645f70,1.1*
G04 #@! TF.SameCoordinates,Original*
G04 #@! TF.FileFunction,Profile,NP*
%FSLAX46Y46*%
G04 Gerber Fmt 4.6, Leading zero omitted, Abs format (unit mm)*
G04 Created by KiCad (PCBNEW 5.1.5+dfsg1-2build2) date 2021-06-19 02:46:47*
%MOMM*%
%LPD*%
G04 APERTURE LIST*
%ADD10C,0.300000*%
%ADD11C,0.100000*%
G04 APERTURE END LIST*
D10*
X372419000Y-54937600D02*
X374378500Y-54937600D01*
X374378500Y-54937600D02*
X374378500Y-59532200D01*
X374378500Y-59532200D02*
X372419000Y-59532200D01*
X372419000Y-59532200D02*
X372419000Y-54937600D01*
D11*
X406622200Y-51911200D02*
X406622200Y-231744000D01*
X139065000Y-52959000D02*
X137922000Y-51911200D01*
X149225000Y-52959000D02*
X148209000Y-51911200D01*
X140208000Y-52959000D02*
X141224000Y-51911200D01*
X122078800Y-52959000D02*
X123063000Y-51911200D01*
X86614000Y-51911200D02*
X87503000Y-52832000D01*
X82550000Y-52832000D02*
X83439000Y-51911200D01*
X81153000Y-52832000D02*
X80264000Y-51911200D01*
X46863000Y-52832000D02*
X47879000Y-51911200D01*
X45593000Y-52832000D02*
X44704000Y-51911200D01*
X36703000Y-52832000D02*
X37719000Y-51911200D01*
D10*
X393901700Y-116368600D02*
X397842200Y-116368600D01*
X397842200Y-116368600D02*
X397842200Y-119863000D01*
X397842200Y-119863000D02*
X393901700Y-119863000D01*
X393901700Y-119863000D02*
X393901700Y-116368600D01*
X393901700Y-148118600D02*
X397842200Y-148118600D01*
X397842200Y-148118600D02*
X397842200Y-151613000D01*
X397842200Y-151613000D02*
X393901700Y-151613000D01*
X393901700Y-151613000D02*
X393901700Y-148118600D01*
D11*
X293640000Y-54837900D02*
X295440000Y-54837900D01*
X295440000Y-54837900D02*
X295440000Y-59352100D01*
X295440000Y-59352100D02*
X293640000Y-59352100D01*
X293640000Y-59352100D02*
X293640000Y-54837900D01*
D10*
X291297200Y-67837900D02*
X293097200Y-67837900D01*
X293097200Y-67837900D02*
X293097200Y-72352100D01*
X293097200Y-72352100D02*
X291297200Y-72352100D01*
X291297200Y-72352100D02*
X291297200Y-67837900D01*
X278382200Y-114615000D02*
X278382200Y-116415000D01*
X278382200Y-116415000D02*
X273867800Y-116415000D01*
X273867800Y-116415000D02*
X273867800Y-114615000D01*
X273867800Y-114615000D02*
X278382200Y-114615000D01*
D11*
X249172200Y-53655000D02*
X249172200Y-55455000D01*
X249172200Y-55455000D02*
X244657800Y-55455000D01*
X244657800Y-55455000D02*
X244657800Y-53655000D01*
X244657800Y-53655000D02*
X249172200Y-53655000D01*
D10*
X248999600Y-129990100D02*
X248999600Y-131790100D01*
X248999600Y-131790100D02*
X244485300Y-131790100D01*
X244485300Y-131790100D02*
X244485300Y-129990000D01*
X244485300Y-129990000D02*
X248999600Y-129990100D01*
X298936700Y-200369200D02*
X298936700Y-202169200D01*
X298936700Y-202169200D02*
X294422400Y-202169200D01*
X294422400Y-202169200D02*
X294422400Y-200369200D01*
X294422400Y-200369200D02*
X298936700Y-200369200D01*
X230468600Y-97409300D02*
X232268600Y-97409300D01*
X232268600Y-97409300D02*
X232268600Y-101923600D01*
X232268600Y-101923600D02*
X230468600Y-101923600D01*
X230468600Y-101923600D02*
X230468600Y-97409300D01*
X316062200Y-144037800D02*
X317862200Y-144037800D01*
X317862200Y-144037800D02*
X317862200Y-148552200D01*
X317862200Y-148552200D02*
X316062200Y-148552200D01*
X316062200Y-148552200D02*
X316062200Y-144037800D01*
X225892200Y-184042800D02*
X227692200Y-184042800D01*
X227692200Y-184042800D02*
X227692200Y-188557200D01*
X227692200Y-188557200D02*
X225892200Y-188557200D01*
X225892200Y-188557200D02*
X225892200Y-184042800D01*
D11*
X16592000Y-63658800D02*
X36703000Y-63658800D01*
X36703000Y-63658800D02*
X36703000Y-52832000D01*
X37719000Y-51911200D02*
X44704000Y-51911200D01*
X45593000Y-52832000D02*
X45593000Y-62103000D01*
X45593000Y-62103000D02*
X46863000Y-62103000D01*
X46863000Y-62103000D02*
X46863000Y-52832000D01*
X47879000Y-51911200D02*
X80264000Y-51911200D01*
X81153000Y-52832000D02*
X81153000Y-62103000D01*
X81153000Y-62103000D02*
X82550000Y-62103000D01*
X82550000Y-62103000D02*
X82550000Y-52832000D01*
X83439000Y-51911200D02*
X86614000Y-51911200D01*
X87503000Y-52832000D02*
X87503000Y-63658800D01*
X87503000Y-63658800D02*
X122078800Y-63658800D01*
X122078800Y-63658800D02*
X122078800Y-52959000D01*
X123063000Y-51911200D02*
X137922000Y-51911200D01*
X139065000Y-52959000D02*
X139065000Y-62103000D01*
X139065000Y-62103000D02*
X140208000Y-62103000D01*
X140208000Y-62103000D02*
X140208000Y-52959000D01*
X141224000Y-51911200D02*
X148209000Y-51911200D01*
X149225000Y-52959000D02*
X149225000Y-63658800D01*
X149225000Y-63658800D02*
X161131200Y-63658800D01*
X161131200Y-63658800D02*
X161131200Y-51593800D01*
X161131200Y-51593800D02*
X298608800Y-51911200D01*
X298608800Y-51911200D02*
X298608800Y-80486200D01*
X298608800Y-80486200D02*
X302101200Y-80486200D01*
X302101200Y-80486200D02*
X302101200Y-69850000D01*
X302101200Y-69850000D02*
X365760000Y-69850000D01*
X365760000Y-69850000D02*
X365760000Y-80486200D01*
X365760000Y-80486200D02*
X369252500Y-80486200D01*
X369252500Y-80486200D02*
X369252500Y-51911200D01*
X369252500Y-51911200D02*
X406622200Y-51911200D01*
X406622200Y-231744000D02*
X16592000Y-231744000D01*
X16592000Y-231744000D02*
X16592000Y-63658800D01*
M02*
