M48
; DRILL file {KiCad 5.1.5+dfsg1-2build2} date Sat 19 Jun 2021 01:49:05 AM CEST
; FORMAT={-:-/ absolute / inch / decimal}
; #@! TF.CreationDate,2021-06-19T01:49:05+02:00
; #@! TF.GenerationSoftware,Kicad,Pcbnew,5.1.5+dfsg1-2build2
FMAT,2
INCH
T1C0.0157
T2C0.0433
T3C0.0591
T4C0.0630
T5C0.0787
T6C0.0866
T7C0.1378
T8C0.0866
T9C0.1063
T10C0.1299
T11C0.1378
T12C0.1693
%
G90
G05
T1
X6.45Y-3.625
X6.6Y-3.425
X6.6Y-3.625
X10.45Y-7.725
X10.65Y-7.725
X14.85Y-3.025
T2
X0.85Y-4.975
X0.9Y-3.225
X0.95Y-8.325
X1.05Y-8.175
X1.05Y-8.275
X1.15Y-8.325
X1.25Y-2.825
X1.3Y-7.025
X1.35Y-2.825
X1.35Y-6.225
X1.35Y-6.425
X1.35Y-8.575
X1.4Y-7.025
X1.45Y-2.825
X1.45Y-7.325
X1.45Y-8.625
X1.45Y-8.725
X1.45Y-8.825
X1.55Y-2.625
X1.55Y-3.925
X1.55Y-4.125
X1.55Y-5.325
X1.55Y-5.425
X1.55Y-8.425
X1.55Y-8.775
X1.65Y-3.325
X1.65Y-5.925
X1.65Y-7.175
X1.65Y-7.325
X1.65Y-8.875
X1.75Y-5.225
X1.75Y-5.625
X1.75Y-6.125
X1.85Y-3.475
X1.85Y-3.725
X1.85Y-3.825
X1.85Y-3.925
X1.85Y-6.025
X1.9Y-3.375
X1.95Y-3.525
X1.95Y-5.525
X1.95Y-6.725
X1.95Y-7.025
X1.95Y-8.875
X2.0Y-6.475
X2.0Y-8.475
X2.05Y-2.525
X2.05Y-2.625
X2.05Y-2.925
X2.05Y-5.425
X2.05Y-5.725
X2.05Y-7.175
X2.05Y-8.875
X2.15Y-5.425
X2.3Y-8.875
X2.35Y-5.475
X2.45Y-3.525
X2.45Y-4.075
X2.45Y-4.175
X2.45Y-4.925
X2.45Y-5.025
X2.5Y-3.425
X2.5Y-4.825
X2.5Y-5.125
X2.55Y-4.025
X2.55Y-4.125
X2.55Y-4.275
X2.55Y-4.375
X2.55Y-5.775
X2.55Y-7.125
X2.55Y-7.425
X2.55Y-8.425
X2.55Y-8.525
X2.6Y-2.925
X2.6Y-3.475
X2.6Y-4.975
X2.65Y-3.625
X2.65Y-3.825
X2.65Y-3.975
X2.65Y-5.325
X2.75Y-3.225
X2.75Y-5.225
X2.85Y-3.325
X2.85Y-8.875
X2.95Y-5.725
X3.0Y-2.525
X3.05Y-4.925
X3.05Y-5.575
X3.05Y-7.475
X3.05Y-7.675
X3.05Y-7.975
X3.1Y-4.475
X3.1Y-4.575
X3.15Y-3.525
X3.15Y-3.625
X3.15Y-3.725
X3.15Y-3.925
X3.2Y-6.975
X3.3Y-6.725
X3.35Y-2.625
X3.35Y-3.075
X3.35Y-3.225
X3.35Y-4.125
X3.4Y-8.875
X3.45Y-5.225
X3.5Y-6.875
X3.6Y-4.375
X3.6Y-4.775
X3.6Y-6.125
X3.6Y-8.125
X3.65Y-2.675
X3.65Y-4.475
X3.65Y-5.375
X3.65Y-6.025
X3.65Y-7.925
X3.65Y-8.025
X3.7Y-4.575
X3.7Y-7.425
X3.75Y-4.675
X3.75Y-8.425
X3.85Y-2.725
X3.85Y-3.275
X3.85Y-6.725
X3.85Y-8.225
X3.9Y-5.525
X3.95Y-3.825
X3.95Y-5.375
X3.95Y-8.875
X4.15Y-4.025
X4.15Y-5.925
X4.15Y-6.425
X4.15Y-7.425
X4.15Y-7.975
X4.15Y-8.125
X4.15Y-8.425
X4.2Y-4.575
X4.25Y-5.325
X4.25Y-5.925
X4.25Y-7.325
X4.3Y-4.525
X4.3Y-7.425
X4.35Y-4.225
X4.35Y-4.325
X4.35Y-5.925
X4.35Y-6.225
X4.35Y-7.675
X4.35Y-7.775
X4.35Y-8.125
X4.35Y-8.525
X4.4Y-6.975
X4.4Y-8.325
X4.45Y-2.725
X4.45Y-5.225
X4.45Y-5.925
X4.45Y-7.175
X4.55Y-4.125
X4.55Y-5.825
X4.55Y-6.725
X4.55Y-8.885
X4.6Y-5.725
X4.65Y-4.025
X4.65Y-5.375
X4.75Y-3.675
X4.75Y-4.025
X4.75Y-4.525
X4.75Y-7.225
X4.75Y-7.325
X4.85Y-3.925
X4.85Y-4.025
X4.85Y-5.425
X4.85Y-6.525
X4.85Y-7.225
X4.85Y-8.225
X4.9Y-5.925
X4.9Y-6.675
X4.9Y-7.025
X4.9Y-7.875
X4.9Y-8.425
X4.9Y-8.525
X4.95Y-2.575
X4.95Y-3.925
X4.95Y-4.025
X4.95Y-5.525
X4.95Y-5.625
X4.95Y-5.725
X4.95Y-6.325
X4.95Y-6.425
X4.95Y-8.075
X4.95Y-8.175
X5.05Y-3.475
X5.05Y-3.925
X5.05Y-4.125
X5.05Y-4.225
X5.05Y-4.325
X5.05Y-4.425
X5.05Y-4.525
X5.05Y-4.625
X5.05Y-4.725
X5.05Y-5.025
X5.05Y-5.725
X5.05Y-5.925
X5.05Y-6.925
X5.05Y-8.425
X5.1475Y-8.8875
X5.15Y-2.575
X5.15Y-5.225
X5.15Y-5.825
X5.15Y-8.225
X5.25Y-4.125
X5.25Y-4.425
X5.25Y-6.025
X5.25Y-6.775
X5.25Y-7.325
X5.3Y-2.575
X5.35Y-4.525
X5.35Y-4.775
X5.35Y-5.475
X5.35Y-5.725
X5.35Y-8.325
X5.4Y-7.125
X5.45Y-2.575
X5.45Y-3.925
X5.45Y-5.475
X5.45Y-5.725
X5.45Y-7.525
X5.45Y-8.325
X5.45Y-8.425
X5.5Y-6.125
X5.5Y-6.625
X5.5Y-6.925
X5.5Y-7.625
X5.5Y-8.225
X5.55Y-3.725
X5.55Y-4.225
X5.55Y-4.325
X5.55Y-4.875
X5.55Y-5.275
X5.55Y-6.325
X5.55Y-6.425
X5.55Y-7.425
X5.55Y-8.025
X5.55Y-8.125
X5.6Y-2.575
X5.6Y-4.725
X5.6Y-5.575
X5.6Y-8.525
X5.65Y-3.625
X5.65Y-3.725
X5.65Y-4.575
X5.65Y-4.925
X5.65Y-5.325
X5.65Y-6.025
X5.65Y-7.375
X5.7Y-5.675
X5.75Y-2.575
X5.75Y-2.975
X5.75Y-5.375
X5.75Y-5.825
X5.75Y-8.225
X5.75Y-8.8825
X5.85Y-3.825
X5.85Y-6.125
X5.85Y-6.775
X5.85Y-7.525
X5.95Y-3.375
X5.95Y-4.525
X5.95Y-4.625
X5.95Y-5.525
X5.95Y-5.625
X5.95Y-7.375
X6.0Y-4.225
X6.0Y-4.425
X6.05Y-3.225
X6.05Y-4.525
X6.05Y-5.175
X6.05Y-5.425
X6.05Y-7.025
X6.05Y-8.025
X6.1Y-3.325
X6.1Y-3.575
X6.1Y-5.075
X6.1Y-7.625
X6.1Y-8.175
X6.15Y-2.925
X6.15Y-4.975
X6.15Y-6.025
X6.15Y-6.125
X6.15Y-6.225
X6.15Y-6.375
X6.15Y-6.625
X6.15Y-6.925
X6.15Y-7.075
X6.15Y-7.375
X6.15Y-7.925
X6.15Y-8.075
X6.2Y-3.425
X6.2Y-3.575
X6.2Y-3.675
X6.2Y-4.875
X6.2Y-5.725
X6.2Y-7.475
X6.25Y-4.775
X6.25Y-5.225
X6.25Y-5.625
X6.25Y-7.375
X6.35Y-5.825
X6.35Y-8.885
X6.45Y-5.925
X6.45Y-6.775
X6.55Y-2.575
X6.55Y-2.925
X6.55Y-3.275
X6.55Y-4.225
X6.55Y-4.525
X6.55Y-4.725
X6.55Y-7.375
X6.55Y-7.475
X6.6Y-3.725
X6.6Y-3.825
X6.65Y-2.825
X6.65Y-2.925
X6.65Y-3.325
X6.65Y-4.225
X6.65Y-4.675
X6.65Y-4.775
X6.65Y-7.925
X6.65Y-8.525
X6.7Y-3.225
X6.7Y-4.325
X6.7Y-5.775
X6.7Y-6.625
X6.7Y-7.175
X6.7Y-7.675
X6.7Y-8.025
X6.7Y-8.125
X6.75Y-3.625
X6.75Y-3.825
X6.75Y-4.675
X6.75Y-5.125
X6.75Y-5.925
X6.75Y-7.325
X6.75Y-7.775
X6.75Y-8.525
X6.8Y-4.825
X6.8Y-7.175
X6.85Y-4.925
X6.85Y-5.075
X6.85Y-5.325
X6.85Y-7.375
X6.95Y-4.175
X6.95Y-4.625
X6.95Y-8.8825
X7.05Y-3.325
X7.05Y-6.825
X7.05Y-7.475
X7.15Y-3.575
X7.15Y-4.025
X7.15Y-4.475
X7.15Y-4.825
X7.15Y-4.925
X7.15Y-5.075
X7.15Y-5.325
X7.15Y-5.725
X7.15Y-5.825
X7.15Y-6.725
X7.15Y-7.225
X7.15Y-7.325
X7.2Y-3.425
X7.2Y-3.725
X7.2Y-3.875
X7.2Y-6.925
X7.2Y-7.025
X7.25Y-3.625
X7.25Y-5.025
X7.25Y-7.625
X7.25Y-7.925
X7.3Y-3.425
X7.3Y-3.775
X7.3Y-4.625
X7.3Y-5.125
X7.3Y-8.175
X7.35Y-3.925
X7.35Y-5.475
X7.35Y-5.575
X7.35Y-5.925
X7.35Y-8.075
X7.4Y-2.975
X7.45Y-3.175
X7.45Y-4.775
X7.45Y-5.125
X7.45Y-5.225
X7.45Y-7.825
X7.45Y-8.675
X7.55Y-4.625
X7.55Y-8.675
X7.65Y-7.325
X7.65Y-8.8825
X7.75Y-5.125
X7.85Y-5.325
X7.85Y-7.825
X7.95Y-7.925
X8.15Y-7.225
X8.2Y-2.925
X8.25Y-7.325
X8.25Y-7.525
X8.25Y-7.675
X8.3Y-5.225
X8.4Y-3.875
X8.4Y-3.975
X8.4Y-5.825
X8.4Y-6.975
X8.45Y-5.625
X8.45Y-6.375
X8.45Y-6.825
X8.458Y-7.9409
X8.55Y-3.075
X8.55Y-3.175
X8.55Y-4.225
X8.55Y-5.625
X8.55Y-7.925
X8.6Y-5.325
X8.6Y-7.175
X8.6Y-7.575
X8.65Y-3.025
X8.65Y-3.525
X8.65Y-4.725
X8.65Y-5.875
X8.65Y-7.925
X8.7Y-6.325
X8.7Y-6.425
X8.7Y-6.525
X8.7Y-6.625
X8.75Y-3.025
X8.75Y-3.325
X8.75Y-3.425
X8.75Y-3.825
X8.75Y-5.925
X8.75Y-6.025
X8.75Y-6.125
X8.75Y-6.225
X8.75Y-6.925
X8.75Y-7.075
X8.75Y-7.175
X8.8Y-5.575
X8.8Y-6.325
X8.8Y-6.425
X8.8Y-6.525
X8.8Y-6.625
X8.8Y-6.825
X8.8Y-7.625
X8.8Y-7.825
X8.85Y-2.625
X8.85Y-2.725
X8.85Y-3.275
X8.85Y-3.425
X8.85Y-3.525
X8.85Y-3.625
X8.85Y-4.325
X8.85Y-4.525
X8.9Y-3.925
X8.9Y-4.025
X8.9Y-4.125
X9.05Y-6.075
X9.05Y-6.175
X9.05Y-6.275
X9.05Y-6.375
X9.05Y-7.075
X9.05Y-7.625
X9.1Y-7.175
X9.25Y-5.775
X9.35Y-8.025
X9.35Y-8.125
X9.45Y-8.025
X9.45Y-8.125
X9.45Y-8.225
X9.5Y-6.525
X9.5Y-7.075
X9.55Y-2.825
X9.55Y-3.825
X9.55Y-4.675
X9.65Y-2.825
X9.65Y-3.825
X9.65Y-8.8875
X9.75Y-2.825
X9.75Y-3.825
X9.75Y-5.425
X9.75Y-5.675
X9.85Y-2.825
X9.85Y-3.825
X9.85Y-6.825
X9.85Y-8.8875
X9.95Y-4.425
X9.95Y-8.8875
X10.05Y-6.725
X10.05Y-8.8875
X10.1Y-5.125
X10.1Y-6.425
X10.1Y-6.525
X10.225Y-5.125
X10.25Y-4.525
X10.3Y-6.425
X10.35Y-4.525
X10.35Y-5.125
X10.35Y-5.675
X10.35Y-6.225
X10.45Y-2.825
X10.45Y-3.825
X10.45Y-4.525
X10.45Y-7.325
X10.65Y-7.4375
X10.75Y-4.675
X10.75Y-4.775
X10.85Y-5.625
X10.85Y-5.975
X10.85Y-7.725
X10.9Y-4.825
X10.9Y-5.825
X10.9Y-6.075
X10.95Y-4.725
X10.95Y-8.125
X10.95Y-8.425
X11.1Y-5.725
X11.15Y-6.825
X11.15Y-7.925
X11.2Y-5.825
X11.2Y-6.325
X11.25Y-4.525
X11.25Y-5.125
X11.35Y-4.525
X11.35Y-5.125
X11.45Y-4.525
X11.45Y-5.125
X11.45Y-8.425
X11.55Y-4.525
X11.55Y-5.125
X11.65Y-5.825
X11.75Y-6.325
X11.75Y-8.225
X11.75Y-8.425
X11.95Y-7.725
X11.95Y-8.88
X12.05Y-8.88
X12.15Y-7.725
X12.15Y-8.88
X12.2Y-7.075
X12.75Y-5.075
X12.8Y-4.875
X12.85Y-4.975
X12.85Y-5.125
X13.25Y-3.725
X13.35Y-3.725
X13.45Y-3.725
X14.35Y-8.425
X14.35Y-8.875
X14.45Y-8.425
X14.45Y-8.875
X14.55Y-8.425
X14.55Y-8.875
X4.55Y-8.425
X4.75Y-8.425
X5.65Y-7.525
X5.65Y-7.625
X5.65Y-7.725
X5.65Y-7.825
X5.65Y-7.925
X5.65Y-8.025
X5.65Y-8.125
X5.65Y-8.225
X5.95Y-7.525
X5.95Y-7.625
X5.95Y-7.725
X5.95Y-7.825
X5.95Y-7.925
X5.95Y-8.025
X5.95Y-8.125
X5.95Y-8.225
X3.25Y-4.125
X3.25Y-4.225
X3.25Y-4.325
X3.25Y-4.425
X3.25Y-4.525
X3.25Y-4.625
X3.25Y-4.725
X3.25Y-4.825
X3.25Y-4.925
X3.25Y-5.025
X3.25Y-5.125
X3.25Y-5.225
X3.85Y-4.125
X3.85Y-4.225
X3.85Y-4.325
X3.85Y-4.425
X3.85Y-4.525
X3.85Y-4.625
X3.85Y-4.725
X3.85Y-4.825
X3.85Y-4.925
X3.85Y-5.025
X3.85Y-5.125
X3.85Y-5.225
X5.75Y-8.425
X5.95Y-8.425
X12.1Y-4.425
X12.1Y-4.625
X6.6Y-3.925
X6.6Y-4.425
X3.2Y-7.525
X3.2Y-7.625
X3.2Y-7.725
X3.2Y-7.825
X3.2Y-7.925
X3.2Y-8.025
X3.2Y-8.125
X3.2Y-8.225
X3.5Y-7.525
X3.5Y-7.625
X3.5Y-7.725
X3.5Y-7.825
X3.5Y-7.925
X3.5Y-8.025
X3.5Y-8.125
X3.5Y-8.225
X10.3Y-6.925
X10.3Y-7.425
X4.55Y-6.925
X4.75Y-6.925
X11.0Y-5.525
X11.0Y-5.625
X11.0Y-5.725
X11.0Y-5.825
X11.0Y-5.925
X11.0Y-6.025
X11.0Y-6.125
X11.0Y-6.225
X11.3Y-5.525
X11.3Y-5.625
X11.3Y-5.725
X11.3Y-5.825
X11.3Y-5.925
X11.3Y-6.025
X11.3Y-6.125
X11.3Y-6.225
X10.45Y-6.325
X10.65Y-6.325
X12.05Y-8.125
X12.25Y-8.125
X14.65Y-8.025
X14.65Y-8.125
X14.655Y-7.925
X5.15Y-3.925
X5.35Y-3.925
X5.15Y-8.425
X5.35Y-8.425
X0.9Y-6.325
X1.4Y-6.325
X7.65Y-5.025
X8.15Y-5.025
X3.85Y-5.825
X4.05Y-5.825
X11.15Y-7.525
X11.65Y-7.525
X2.2Y-7.025
X2.4Y-7.025
X13.45Y-3.825
X13.45Y-4.025
X13.45Y-4.325
X0.9Y-7.225
X1.4Y-7.225
X1.55Y-3.125
X1.75Y-3.125
X12.05Y-3.82
X12.15Y-3.82
X12.25Y-3.82
X12.35Y-3.82
X12.45Y-3.82
X12.55Y-3.82
X12.65Y-3.82
X12.75Y-3.82
X12.85Y-3.82
X12.95Y-3.82
X10.1Y-6.625
X10.2Y-6.525
X10.3Y-6.625
X2.75Y-5.825
X2.95Y-5.825
X1.55Y-6.125
X1.55Y-6.225
X1.55Y-6.325
X1.55Y-6.425
X1.55Y-6.525
X1.55Y-6.625
X1.55Y-6.725
X1.85Y-6.125
X1.85Y-6.225
X1.85Y-6.325
X1.85Y-6.425
X1.85Y-6.525
X1.85Y-6.625
X1.85Y-6.725
X10.95Y-6.425
X11.45Y-6.425
X11.85Y-6.425
X11.85Y-6.525
X11.85Y-6.625
X4.05Y-4.125
X4.05Y-4.225
X4.05Y-4.325
X4.05Y-4.425
X4.05Y-4.525
X4.05Y-4.625
X4.05Y-4.725
X4.05Y-4.825
X4.05Y-4.925
X4.05Y-5.025
X4.05Y-5.125
X4.05Y-5.225
X4.65Y-4.125
X4.65Y-4.225
X4.65Y-4.325
X4.65Y-4.425
X4.65Y-4.525
X4.65Y-4.625
X4.65Y-4.725
X4.65Y-4.825
X4.65Y-4.925
X4.65Y-5.025
X4.65Y-5.125
X4.65Y-5.225
X14.2Y-6.825
X14.2Y-7.325
X11.65Y-5.325
X11.85Y-5.325
X7.55Y-7.625
X8.05Y-7.625
X6.95Y-8.425
X7.15Y-8.425
X13.7Y-5.1502
X13.7Y-7.025
X13.85Y-3.825
X13.85Y-4.325
X14.25Y-3.825
X14.25Y-4.325
X6.35Y-8.425
X6.55Y-8.425
X4.25Y-7.525
X4.25Y-7.625
X4.25Y-7.725
X4.25Y-7.825
X4.25Y-7.925
X4.25Y-8.025
X4.25Y-8.125
X4.25Y-8.225
X0.9Y-6.125
X1.4Y-6.125
X3.0Y-7.025
X3.5Y-7.025
X7.65Y-3.325
X7.65Y-3.825
X7.75Y-6.425
X7.95Y-6.425
X14.65Y-3.825
X14.65Y-4.025
X14.65Y-4.325
X12.3Y-6.125
X12.3Y-6.325
X3.55Y-5.425
X4.05Y-5.425
X9.15Y-5.525
X9.65Y-5.525
X2.9Y-3.125
X3.1Y-3.125
X13.05Y-4.525
X13.05Y-4.725
X1.15Y-3.375
X1.15Y-3.475
X1.15Y-3.575
X1.15Y-3.675
X1.15Y-3.775
X1.15Y-3.875
X1.15Y-3.975
X1.15Y-4.075
X1.15Y-4.175
X1.15Y-4.275
X1.15Y-4.375
X1.15Y-4.475
X1.15Y-4.575
X1.15Y-4.675
X1.15Y-4.775
X1.15Y-4.875
X1.15Y-4.975
X1.15Y-5.075
X1.15Y-5.275
X3.3Y-7.325
X3.5Y-7.325
X2.2Y-8.525
X2.4Y-8.525
X7.55Y-7.425
X8.05Y-7.425
X11.1Y-5.325
X11.3Y-5.325
X2.15Y-5.625
X2.65Y-5.625
X3.85Y-7.325
X4.05Y-7.325
X5.75Y-3.325
X5.75Y-3.425
X5.75Y-3.525
X5.75Y-3.625
X5.75Y-3.725
X5.75Y-3.825
X5.75Y-3.925
X5.75Y-4.025
X5.75Y-4.125
X5.75Y-4.225
X5.75Y-4.325
X5.75Y-4.425
X5.75Y-4.525
X5.75Y-4.625
X5.75Y-4.725
X5.75Y-4.825
X5.75Y-4.925
X5.75Y-5.025
X5.75Y-5.125
X5.75Y-5.225
X6.35Y-3.325
X6.35Y-3.425
X6.35Y-3.525
X6.35Y-3.625
X6.35Y-3.725
X6.35Y-3.825
X6.35Y-3.925
X6.35Y-4.025
X6.35Y-4.125
X6.35Y-4.225
X6.35Y-4.325
X6.35Y-4.425
X6.35Y-4.525
X6.35Y-4.625
X6.35Y-4.725
X6.35Y-4.825
X6.35Y-4.925
X6.35Y-5.025
X6.35Y-5.125
X6.35Y-5.225
X10.25Y-5.325
X10.25Y-5.825
X7.65Y-4.775
X8.15Y-4.775
X15.55Y-7.025
X15.55Y-7.225
X9.85Y-8.425
X10.35Y-8.425
X3.25Y-3.325
X3.25Y-3.825
X12.3Y-6.625
X12.3Y-7.125
X9.55Y-8.125
X9.55Y-8.325
X1.85Y-7.175
X1.85Y-7.375
X11.75Y-4.425
X11.75Y-4.625
X0.9Y-7.825
X1.4Y-7.825
X8.45Y-4.625
X8.45Y-4.825
X7.65Y-5.825
X8.15Y-5.825
X11.15Y-7.725
X11.65Y-7.725
X3.55Y-3.225
X4.05Y-3.225
X13.45Y-7.125
X13.45Y-7.325
X4.455Y-7.5225
X4.455Y-7.6225
X4.455Y-7.7225
X4.455Y-7.8225
X4.455Y-7.9225
X4.455Y-8.0225
X4.455Y-8.1225
X4.455Y-8.2225
X4.755Y-7.5225
X4.755Y-7.6225
X4.755Y-7.7225
X4.755Y-7.8225
X4.755Y-7.9225
X4.755Y-8.0225
X4.755Y-8.1225
X4.755Y-8.2225
X7.95Y-4.325
X7.95Y-4.425
X7.95Y-4.525
X11.45Y-6.975
X11.45Y-7.075
X11.45Y-7.175
X12.95Y-8.225
X12.95Y-8.425
X5.05Y-7.325
X5.05Y-7.425
X5.05Y-7.525
X5.05Y-7.625
X5.05Y-7.725
X5.05Y-7.825
X5.05Y-7.925
X5.05Y-8.025
X5.05Y-8.125
X5.05Y-8.225
X5.35Y-7.325
X5.35Y-7.425
X5.35Y-7.525
X5.35Y-7.625
X5.35Y-7.725
X5.35Y-7.825
X5.35Y-7.925
X5.35Y-8.025
X5.35Y-8.125
X5.35Y-8.225
X9.15Y-7.025
X9.15Y-7.525
X4.35Y-3.725
X4.85Y-3.725
X14.95Y-8.025
X15.45Y-8.025
X10.45Y-7.525
X10.95Y-7.525
X1.65Y-8.425
X1.85Y-8.425
X0.9Y-7.425
X1.4Y-7.425
X6.35Y-5.425
X6.55Y-5.425
X7.65Y-5.2248
X8.15Y-5.2248
X12.65Y-8.225
X12.65Y-8.425
X6.35Y-5.625
X6.55Y-5.625
X12.1Y-3.275
X12.1Y-3.475
X12.2Y-3.275
X12.2Y-3.475
X12.3Y-3.275
X12.3Y-3.475
X12.4Y-3.275
X12.4Y-3.475
X12.5Y-3.275
X12.5Y-3.475
X12.6Y-3.275
X12.6Y-3.475
X12.7Y-3.275
X12.7Y-3.475
X12.8Y-3.275
X12.8Y-3.475
X12.9Y-3.275
X12.9Y-3.475
X13.0Y-3.275
X13.0Y-3.475
X13.1Y-3.275
X13.1Y-3.475
X13.2Y-3.275
X13.2Y-3.475
X13.3Y-3.275
X13.3Y-3.475
X13.4Y-3.275
X13.4Y-3.475
X13.5Y-3.275
X13.5Y-3.475
X13.6Y-3.275
X13.6Y-3.475
X13.7Y-3.275
X13.7Y-3.475
X13.8Y-3.275
X13.8Y-3.475
X13.9Y-3.275
X13.9Y-3.475
X14.0Y-3.275
X14.0Y-3.475
X14.1Y-3.275
X14.1Y-3.475
X14.2Y-3.275
X14.2Y-3.475
X6.85Y-7.625
X6.85Y-7.725
X6.85Y-7.825
X6.85Y-7.925
X6.85Y-8.025
X6.85Y-8.125
X6.85Y-8.225
X7.15Y-7.625
X7.15Y-7.725
X7.15Y-7.825
X7.15Y-7.925
X7.15Y-8.025
X7.15Y-8.125
X7.15Y-8.225
X2.75Y-7.325
X2.95Y-7.325
X0.9Y-6.525
X1.4Y-6.525
X8.05Y-3.325
X8.05Y-3.825
X3.55Y-3.575
X4.05Y-3.575
X3.3Y-5.825
X3.5Y-5.825
X11.8Y-7.525
X12.3Y-7.525
X14.85Y-2.425
X14.85Y-3.025
X10.95Y-7.125
X11.15Y-7.125
X4.25Y-6.025
X4.25Y-6.125
X4.25Y-6.225
X4.25Y-6.325
X4.25Y-6.425
X4.25Y-6.525
X4.25Y-6.625
X4.25Y-6.725
X15.45Y-7.525
X15.65Y-7.525
X1.55Y-7.625
X1.55Y-7.725
X1.55Y-7.825
X1.55Y-7.925
X1.55Y-8.025
X1.55Y-8.125
X1.55Y-8.225
X1.85Y-7.625
X1.85Y-7.725
X1.85Y-7.825
X1.85Y-7.925
X1.85Y-8.025
X1.85Y-8.125
X1.85Y-8.225
X2.35Y-3.325
X2.35Y-3.425
X2.35Y-3.525
X2.35Y-3.625
X2.35Y-3.725
X2.35Y-3.825
X2.35Y-3.925
X2.35Y-4.025
X2.35Y-4.125
X2.35Y-4.225
X2.35Y-4.325
X2.35Y-4.425
X2.35Y-4.525
X2.35Y-4.625
X2.35Y-4.725
X2.35Y-4.825
X2.35Y-4.925
X2.35Y-5.025
X2.35Y-5.125
X2.35Y-5.225
X2.95Y-3.325
X2.95Y-3.425
X2.95Y-3.525
X2.95Y-3.625
X2.95Y-3.725
X2.95Y-3.825
X2.95Y-3.925
X2.95Y-4.025
X2.95Y-4.125
X2.95Y-4.225
X2.95Y-4.325
X2.95Y-4.425
X2.95Y-4.525
X2.95Y-4.625
X2.95Y-4.725
X2.95Y-4.825
X2.95Y-4.925
X2.95Y-5.025
X2.95Y-5.125
X2.95Y-5.225
X12.05Y-8.425
X12.25Y-8.425
X9.5256Y-4.41
X9.6256Y-4.41
X9.7256Y-4.41
X9.8256Y-4.41
X10.765Y-4.41
X10.865Y-4.41
X10.965Y-4.41
X11.065Y-4.41
X7.65Y-5.425
X8.15Y-5.425
X5.65Y-6.125
X5.65Y-6.225
X5.65Y-6.325
X5.65Y-6.425
X5.65Y-6.525
X5.65Y-6.625
X5.65Y-6.725
X5.95Y-6.125
X5.95Y-6.225
X5.95Y-6.325
X5.95Y-6.425
X5.95Y-6.525
X5.95Y-6.625
X5.95Y-6.725
X8.45Y-7.325
X8.45Y-7.525
X11.55Y-5.525
X11.55Y-5.625
X11.55Y-5.725
X11.55Y-5.825
X11.55Y-5.925
X11.55Y-6.025
X11.55Y-6.125
X11.85Y-5.525
X11.85Y-5.625
X11.85Y-5.725
X11.85Y-5.825
X11.85Y-5.925
X11.85Y-6.025
X11.85Y-6.125
X2.1Y-6.025
X2.1Y-6.125
X2.1Y-6.225
X2.1Y-6.325
X2.1Y-6.425
X2.1Y-6.525
X2.1Y-6.625
X2.1Y-6.725
X2.4Y-6.025
X2.4Y-6.125
X2.4Y-6.225
X2.4Y-6.325
X2.4Y-6.425
X2.4Y-6.525
X2.4Y-6.625
X2.4Y-6.725
X6.85Y-5.425
X6.85Y-5.525
X6.85Y-5.625
X6.85Y-5.725
X6.85Y-5.825
X6.85Y-5.925
X6.85Y-6.025
X6.85Y-6.125
X6.85Y-6.225
X6.85Y-6.325
X6.85Y-6.425
X6.85Y-6.525
X6.85Y-6.625
X6.85Y-6.725
X7.45Y-5.425
X7.45Y-5.525
X7.45Y-5.625
X7.45Y-5.725
X7.45Y-5.825
X7.45Y-5.925
X7.45Y-6.025
X7.45Y-6.125
X7.45Y-6.225
X7.45Y-6.325
X7.45Y-6.425
X7.45Y-6.525
X7.45Y-6.625
X7.45Y-6.725
X2.65Y-7.525
X2.65Y-7.625
X2.65Y-7.725
X2.65Y-7.825
X2.65Y-7.925
X2.65Y-8.025
X2.65Y-8.125
X2.65Y-8.225
X2.95Y-7.525
X2.95Y-7.625
X2.95Y-7.725
X2.95Y-7.825
X2.95Y-7.925
X2.95Y-8.025
X2.95Y-8.125
X2.95Y-8.225
X3.55Y-3.725
X4.05Y-3.725
X8.1584Y-4.3015
X8.703Y-4.225
X7.55Y-7.225
X7.75Y-7.225
X9.15Y-6.525
X9.15Y-6.725
X0.9Y-6.725
X1.4Y-6.725
X7.65Y-5.625
X8.15Y-5.625
X13.0Y-5.1452
X13.0Y-7.02
X3.15Y-8.425
X3.65Y-8.425
X3.75Y-7.525
X3.75Y-7.625
X3.75Y-7.725
X3.75Y-7.825
X3.75Y-7.925
X3.75Y-8.025
X3.75Y-8.125
X3.75Y-8.225
X4.05Y-7.525
X4.05Y-7.625
X4.05Y-7.725
X4.05Y-7.825
X4.05Y-7.925
X4.05Y-8.025
X4.05Y-8.125
X4.05Y-8.225
X5.15Y-6.925
X5.35Y-6.925
X2.2Y-5.825
X2.4Y-5.825
X1.45Y-3.325
X1.45Y-3.425
X1.45Y-3.525
X1.45Y-3.625
X1.45Y-3.725
X1.45Y-3.825
X1.45Y-3.925
X1.45Y-4.025
X1.45Y-4.125
X1.45Y-4.225
X1.45Y-4.325
X1.45Y-4.425
X1.45Y-4.525
X1.45Y-4.625
X1.45Y-4.725
X1.45Y-4.825
X1.45Y-4.925
X1.45Y-5.025
X1.45Y-5.125
X1.45Y-5.225
X2.05Y-3.325
X2.05Y-3.425
X2.05Y-3.525
X2.05Y-3.625
X2.05Y-3.725
X2.05Y-3.825
X2.05Y-3.925
X2.05Y-4.025
X2.05Y-4.125
X2.05Y-4.225
X2.05Y-4.325
X2.05Y-4.425
X2.05Y-4.525
X2.05Y-4.625
X2.05Y-4.725
X2.05Y-4.825
X2.05Y-4.925
X2.05Y-5.025
X2.05Y-5.125
X2.05Y-5.225
X10.45Y-5.525
X10.45Y-5.625
X10.45Y-5.725
X10.45Y-5.825
X10.45Y-5.925
X10.45Y-6.025
X10.45Y-6.125
X10.75Y-5.525
X10.75Y-5.625
X10.75Y-5.725
X10.75Y-5.825
X10.75Y-5.925
X10.75Y-6.025
X10.75Y-6.125
X10.15Y-6.925
X10.15Y-7.425
X6.25Y-5.925
X6.25Y-6.025
X6.25Y-6.125
X6.25Y-6.225
X6.25Y-6.325
X6.25Y-6.425
X6.25Y-6.525
X6.25Y-6.625
X6.25Y-6.725
X6.55Y-5.925
X6.55Y-6.025
X6.55Y-6.125
X6.55Y-6.225
X6.55Y-6.325
X6.55Y-6.425
X6.55Y-6.525
X6.55Y-6.625
X6.55Y-6.725
X4.85Y-4.125
X4.85Y-4.225
X4.85Y-4.325
X4.85Y-4.425
X4.85Y-4.525
X4.85Y-4.625
X4.85Y-4.725
X4.85Y-4.825
X4.85Y-4.925
X4.85Y-5.025
X4.85Y-5.125
X4.85Y-5.225
X5.45Y-4.125
X5.45Y-4.225
X5.45Y-4.325
X5.45Y-4.425
X5.45Y-4.525
X5.45Y-4.625
X5.45Y-4.725
X5.45Y-4.825
X5.45Y-4.925
X5.45Y-5.025
X5.45Y-5.125
X5.45Y-5.225
X2.45Y-2.625
X2.55Y-2.625
X2.65Y-2.625
X2.75Y-2.625
X2.85Y-2.625
X2.95Y-2.625
X3.05Y-2.625
X3.15Y-2.625
X7.7Y-6.775
X7.7Y-6.975
X15.65Y-7.825
X15.65Y-7.925
X15.65Y-8.025
X14.2Y-5.675
X14.2Y-5.875
X2.1Y-7.525
X2.1Y-7.625
X2.1Y-7.725
X2.1Y-7.825
X2.1Y-7.925
X2.1Y-8.025
X2.1Y-8.125
X2.1Y-8.225
X2.4Y-7.525
X2.4Y-7.625
X2.4Y-7.725
X2.4Y-7.825
X2.4Y-7.925
X2.4Y-8.025
X2.4Y-8.125
X2.4Y-8.225
X5.75Y-3.125
X5.95Y-3.125
X12.45Y-4.425
X12.45Y-4.625
X14.2Y-6.2
X14.2Y-6.7
X3.25Y-2.975
X3.75Y-2.975
X15.15Y-7.025
X15.15Y-7.525
X7.75Y-6.075
X7.95Y-6.075
X1.65Y-6.925
X1.85Y-6.925
X6.25Y-7.625
X6.25Y-7.725
X6.25Y-7.825
X6.25Y-7.925
X6.25Y-8.025
X6.25Y-8.125
X6.25Y-8.225
X6.55Y-7.625
X6.55Y-7.725
X6.55Y-7.825
X6.55Y-7.925
X6.55Y-8.025
X6.55Y-8.125
X6.55Y-8.225
X8.05Y-6.775
X8.05Y-6.975
X15.2682Y-5.6805
X15.2682Y-5.7895
X15.2682Y-5.8986
X15.2682Y-6.0076
X15.2682Y-6.1167
X15.38Y-5.735
X15.38Y-5.8441
X15.38Y-5.9531
X15.38Y-6.0622
X8.25Y-6.075
X8.25Y-6.275
X4.35Y-3.925
X4.55Y-3.925
X10.05Y-4.925
X10.25Y-4.925
X3.2Y-6.025
X3.2Y-6.125
X3.2Y-6.225
X3.2Y-6.325
X3.2Y-6.425
X3.2Y-6.525
X3.2Y-6.625
X3.2Y-6.725
X3.5Y-6.025
X3.5Y-6.125
X3.5Y-6.225
X3.5Y-6.325
X3.5Y-6.425
X3.5Y-6.525
X3.5Y-6.625
X3.5Y-6.725
X0.9Y-5.525
X1.4Y-5.525
X14.0Y-7.125
X14.0Y-7.325
X12.25Y-5.325
X12.25Y-5.825
X0.9Y-5.925
X1.4Y-5.925
X3.55Y-3.425
X4.05Y-3.425
X12.1Y-6.125
X12.1Y-6.325
X4.45Y-3.125
X4.45Y-3.225
X4.45Y-3.325
X2.35Y-3.125
X2.55Y-3.125
X10.65Y-8.225
X10.65Y-8.425
X10.45Y-7.725
X10.65Y-7.725
X9.85Y-8.125
X10.35Y-8.125
X3.75Y-6.025
X3.75Y-6.125
X3.75Y-6.225
X3.75Y-6.325
X3.75Y-6.425
X3.75Y-6.525
X3.75Y-6.625
X3.75Y-6.725
X4.05Y-6.025
X4.05Y-6.125
X4.05Y-6.225
X4.05Y-6.325
X4.05Y-6.425
X4.05Y-6.525
X4.05Y-6.625
X4.05Y-6.725
X9.15Y-5.325
X9.65Y-5.325
X2.67Y-6.965
X2.87Y-6.965
X4.25Y-5.625
X4.75Y-5.625
X14.95Y-7.825
X15.45Y-7.825
X10.55Y-4.925
X11.05Y-4.925
X0.9Y-8.025
X1.4Y-8.025
X5.15Y-3.725
X5.35Y-3.725
X5.75Y-6.925
X5.95Y-6.925
X15.05Y-2.425
X15.05Y-2.625
X3.65Y-5.725
X3.65Y-6.225
X0.9Y-7.625
X1.4Y-7.625
X4.45Y-6.025
X4.45Y-6.125
X4.45Y-6.225
X4.45Y-6.325
X4.45Y-6.425
X4.45Y-6.525
X4.45Y-6.625
X4.45Y-6.725
X4.75Y-6.025
X4.75Y-6.125
X4.75Y-6.225
X4.75Y-6.325
X4.75Y-6.425
X4.75Y-6.525
X4.75Y-6.625
X4.75Y-6.725
X12.85Y-8.025
X12.95Y-8.025
X13.05Y-8.03
X15.05Y-3.025
X15.05Y-3.225
X14.6461Y-5.6502
X14.6461Y-7.525
X9.35Y-5.825
X9.35Y-5.925
X9.35Y-6.025
X9.35Y-6.125
X9.35Y-6.225
X9.35Y-6.325
X9.35Y-6.425
X9.35Y-6.525
X9.35Y-6.625
X9.35Y-6.725
X9.35Y-6.825
X9.35Y-6.925
X9.35Y-7.025
X9.35Y-7.125
X9.35Y-7.225
X9.35Y-7.325
X9.35Y-7.425
X9.35Y-7.525
X9.35Y-7.625
X9.35Y-7.725
X9.95Y-5.825
X9.95Y-5.925
X9.95Y-6.025
X9.95Y-6.125
X9.95Y-6.225
X9.95Y-6.325
X9.95Y-6.425
X9.95Y-6.525
X9.95Y-6.625
X9.95Y-6.725
X9.95Y-6.825
X9.95Y-6.925
X9.95Y-7.025
X9.95Y-7.125
X9.95Y-7.225
X9.95Y-7.325
X9.95Y-7.425
X9.95Y-7.525
X9.95Y-7.625
X9.95Y-7.725
X10.45Y-6.525
X10.45Y-6.625
X10.45Y-6.725
X10.45Y-6.825
X10.45Y-6.925
X10.45Y-7.025
X10.45Y-7.125
X10.45Y-7.225
X10.75Y-6.525
X10.75Y-6.625
X10.75Y-6.725
X10.75Y-6.825
X10.75Y-6.925
X10.75Y-7.025
X10.75Y-7.125
X10.75Y-7.225
X10.95Y-6.625
X11.45Y-6.625
X10.1Y-5.325
X10.1Y-5.825
X4.45Y-3.525
X4.65Y-3.525
X0.9Y-5.725
X1.4Y-5.725
X6.35Y-6.925
X6.55Y-6.925
X6.95Y-5.225
X7.15Y-5.225
X6.35Y-2.925
X6.35Y-3.125
X5.05Y-6.025
X5.05Y-6.125
X5.05Y-6.225
X5.05Y-6.325
X5.05Y-6.425
X5.05Y-6.525
X5.05Y-6.625
X5.05Y-6.725
X5.35Y-6.025
X5.35Y-6.125
X5.35Y-6.225
X5.35Y-6.325
X5.35Y-6.425
X5.35Y-6.525
X5.35Y-6.625
X5.35Y-6.725
X9.9Y-5.325
X9.9Y-5.525
X7.45Y-8.125
X7.65Y-8.125
X14.95Y-8.225
X15.45Y-8.225
X15.2682Y-4.4238
X15.2682Y-4.5328
X15.2682Y-4.6419
X15.2682Y-4.7509
X15.2682Y-4.86
X15.38Y-4.4783
X15.38Y-4.5874
X15.38Y-4.6964
X15.38Y-4.8055
X10.55Y-5.325
X10.75Y-5.325
X3.55Y-3.925
X3.75Y-3.925
X7.45Y-7.925
X7.65Y-7.925
X6.85Y-3.325
X6.85Y-3.425
X6.85Y-3.525
X6.85Y-3.625
X6.85Y-3.725
X6.85Y-3.825
X6.85Y-3.925
X6.85Y-4.025
X6.85Y-4.125
X6.85Y-4.225
X6.85Y-4.325
X6.85Y-4.425
X6.85Y-4.525
X6.85Y-4.625
X7.45Y-3.325
X7.45Y-3.425
X7.45Y-3.525
X7.45Y-3.625
X7.45Y-3.725
X7.45Y-3.825
X7.45Y-3.925
X7.45Y-4.025
X7.45Y-4.125
X7.45Y-4.225
X7.45Y-4.325
X7.45Y-4.425
X7.45Y-4.525
X7.45Y-4.625
X7.65Y-4.325
X7.65Y-4.525
X4.95Y-3.525
X5.45Y-3.525
X3.55Y-5.625
X4.05Y-5.625
X7.95Y-4.65
X8.15Y-4.65
X3.05Y-5.425
X3.25Y-5.425
X8.7Y-7.325
X8.7Y-7.825
X8.25Y-7.825
X8.45Y-7.825
X4.65Y-3.025
X4.65Y-3.125
X4.65Y-3.225
X0.8875Y-8.225
X1.3875Y-8.225
X7.85Y-3.325
X7.85Y-3.825
X2.65Y-6.025
X2.65Y-6.125
X2.65Y-6.225
X2.65Y-6.325
X2.65Y-6.425
X2.65Y-6.525
X2.65Y-6.625
X2.65Y-6.725
X2.95Y-6.025
X2.95Y-6.125
X2.95Y-6.225
X2.95Y-6.325
X2.95Y-6.425
X2.95Y-6.525
X2.95Y-6.625
X2.95Y-6.725
X10.2Y-6.075
X10.2Y-6.275
X12.1Y-5.325
X12.1Y-5.825
X4.25Y-3.125
X4.25Y-3.225
X4.25Y-3.325
X10.95Y-6.825
X11.45Y-6.825
X6.85Y-3.125
X7.05Y-3.125
X2.2Y-7.325
X2.4Y-7.325
T3
X14.35Y-5.125
X14.35Y-5.425
X14.65Y-5.125
X14.65Y-5.425
T4
X8.035Y-2.5381
X8.035Y-2.735
X8.1334Y-2.1444
X8.1334Y-2.6366
X8.3303Y-2.5381
X8.3303Y-2.735
X8.5271Y-2.1444
X8.5271Y-2.6381
X8.6256Y-2.5381
X8.6256Y-2.735
X15.4156Y-2.7547
X15.4156Y-3.3453
X15.5141Y-2.8531
X15.5141Y-3.2469
X15.6125Y-2.7547
X15.6125Y-3.05
X15.6125Y-3.3453
X15.9062Y-2.9531
X15.9062Y-3.1531
X6.8497Y-2.5406
X6.9481Y-2.1469
X6.9481Y-2.6391
X7.145Y-2.5406
X7.145Y-2.7375
X7.3419Y-2.1469
X7.3419Y-2.6406
X7.4403Y-2.5406
T5
X15.015Y-3.6598
X15.015Y-3.85
X15.165Y-3.6598
X15.165Y-3.85
X15.315Y-3.6598
X15.315Y-3.85
X15.8185Y-3.6598
X15.8185Y-3.85
T6
X8.925Y-5.75
X9.1Y-2.775
X9.725Y-4.55
X10.1Y-7.9125
X10.875Y-2.15
X11.5Y-3.925
X11.5893Y-3.2193
X11.6875Y-5.1625
X12.475Y-7.325
X14.6893Y-3.2193
X13.35Y-4.825
X13.65Y-4.825
X14.45Y-4.825
X14.75Y-4.825
T7
X12.95Y-7.3691
X5.3059Y-3.125
X13.9941Y-8.025
T8
X13.5988Y-8.025
T9
X0.85Y-8.925
X15.8506Y-6.7625
X8.915Y-8.9375
T10
X15.6753Y-5.4065
X15.6753Y-6.3907
X15.6753Y-4.1498
X15.6753Y-5.134
T11
X15.41Y-2.3475
T12
X4.14Y-2.8248
X15.6929Y-8.8091
X0.968Y-2.8248
X15.6929Y-2.3524
X7.7402Y-2.8248
X0.968Y-8.8091
X8.5197Y-8.8091
T0
M30
